<mxfile host="Electron" modified="2023-06-14T18:21:15.384Z" agent="Mozilla/5.0 (Windows NT 10.0; Win64; x64) AppleWebKit/537.36 (KHTML, like Gecko) draw.io/21.3.7 Chrome/112.0.5615.204 Electron/24.5.0 Safari/537.36" etag="xeHqN3zIa4n726U_0S7T" version="21.3.7" type="device">
  <diagram name="Page-1" id="7S6xRC4rpAH30ArMUwE_">
    <mxGraphModel dx="-370" dy="498" grid="1" gridSize="5" guides="1" tooltips="1" connect="1" arrows="1" fold="1" page="0" pageScale="1" pageWidth="1169" pageHeight="827" math="0" shadow="0">
      <root>
        <mxCell id="0" />
        <mxCell id="1" parent="0" />
        <mxCell id="lLOslBUi60POb3ONzHfv-1" style="edgeStyle=none;curved=1;rounded=0;orthogonalLoop=1;jettySize=auto;html=1;fontSize=12;startSize=8;endSize=4;fontFamily=Iosevka;endArrow=block;endFill=1;" edge="1" parent="1" source="lLOslBUi60POb3ONzHfv-3" target="lLOslBUi60POb3ONzHfv-66">
          <mxGeometry relative="1" as="geometry">
            <mxPoint x="1479.97" y="373.5" as="targetPoint" />
          </mxGeometry>
        </mxCell>
        <mxCell id="lLOslBUi60POb3ONzHfv-2" value="Yes" style="edgeLabel;html=1;align=center;verticalAlign=middle;resizable=0;points=[];fontSize=16;fontFamily=Iosevka;" vertex="1" connectable="0" parent="lLOslBUi60POb3ONzHfv-1">
          <mxGeometry x="-0.264" y="-1" relative="1" as="geometry">
            <mxPoint x="1" y="-1" as="offset" />
          </mxGeometry>
        </mxCell>
        <mxCell id="lLOslBUi60POb3ONzHfv-92" style="edgeStyle=orthogonalEdgeStyle;rounded=1;orthogonalLoop=1;jettySize=auto;html=1;fontSize=12;startSize=8;endSize=4;exitX=0;exitY=0.5;exitDx=0;exitDy=0;fontFamily=Iosevka;endArrow=block;endFill=1;" edge="1" parent="1" source="lLOslBUi60POb3ONzHfv-3" target="lLOslBUi60POb3ONzHfv-3">
          <mxGeometry relative="1" as="geometry">
            <mxPoint x="1479.97" y="275" as="targetPoint" />
            <Array as="points">
              <mxPoint x="1359.97" y="310" />
              <mxPoint x="1359.97" y="260" />
              <mxPoint x="1479.97" y="260" />
            </Array>
          </mxGeometry>
        </mxCell>
        <mxCell id="lLOslBUi60POb3ONzHfv-97" value="No" style="edgeLabel;html=1;align=center;verticalAlign=middle;resizable=0;points=[];fontSize=16;fontFamily=Iosevka;" vertex="1" connectable="0" parent="lLOslBUi60POb3ONzHfv-92">
          <mxGeometry x="-0.7345" y="-1" relative="1" as="geometry">
            <mxPoint x="3" y="1" as="offset" />
          </mxGeometry>
        </mxCell>
        <mxCell id="lLOslBUi60POb3ONzHfv-3" value="Next timer&lt;br&gt;loop?" style="rhombus;whiteSpace=wrap;html=1;fontFamily=Iosevka;fontSize=12;strokeWidth=1;rounded=1;" vertex="1" parent="1">
          <mxGeometry x="1419.97" y="280" width="120" height="60" as="geometry" />
        </mxCell>
        <mxCell id="lLOslBUi60POb3ONzHfv-4" style="edgeStyle=orthogonalEdgeStyle;rounded=1;orthogonalLoop=1;jettySize=auto;html=1;exitX=0.5;exitY=1;exitDx=0;exitDy=0;exitPerimeter=0;entryX=0.5;entryY=0;entryDx=0;entryDy=0;fontFamily=Iosevka;endArrow=block;endFill=1;endSize=4;startSize=8;" edge="1" parent="1" source="lLOslBUi60POb3ONzHfv-5" target="lLOslBUi60POb3ONzHfv-3">
          <mxGeometry relative="1" as="geometry">
            <Array as="points">
              <mxPoint x="1479.97" y="255" />
              <mxPoint x="1479.97" y="255" />
            </Array>
          </mxGeometry>
        </mxCell>
        <mxCell id="lLOslBUi60POb3ONzHfv-5" value="START" style="strokeWidth=1;html=1;shape=mxgraph.flowchart.start_1;whiteSpace=wrap;fontFamily=Iosevka;rounded=1;" vertex="1" parent="1">
          <mxGeometry x="1439.97" y="200" width="80" height="40" as="geometry" />
        </mxCell>
        <mxCell id="lLOslBUi60POb3ONzHfv-111" style="edgeStyle=none;curved=1;rounded=0;orthogonalLoop=1;jettySize=auto;html=1;fontSize=12;startSize=8;endSize=4;endArrow=block;endFill=1;fontFamily=Iosevka;" edge="1" parent="1" source="lLOslBUi60POb3ONzHfv-7" target="lLOslBUi60POb3ONzHfv-24">
          <mxGeometry relative="1" as="geometry" />
        </mxCell>
        <mxCell id="lLOslBUi60POb3ONzHfv-7" value="Request code&lt;br&gt;itr = 0" style="rounded=1;whiteSpace=wrap;html=1;fontSize=12;glass=0;strokeWidth=1;shadow=0;fontFamily=Iosevka;container=0;" vertex="1" parent="1">
          <mxGeometry x="1840" y="100" width="120" height="40" as="geometry" />
        </mxCell>
        <mxCell id="lLOslBUi60POb3ONzHfv-8" style="edgeStyle=none;curved=1;rounded=0;orthogonalLoop=1;jettySize=auto;html=1;fontSize=12;startSize=8;endSize=4;endArrow=block;endFill=1;fontFamily=Iosevka;" edge="1" parent="1" source="lLOslBUi60POb3ONzHfv-9" target="lLOslBUi60POb3ONzHfv-75">
          <mxGeometry relative="1" as="geometry">
            <mxPoint x="1869" y="369" as="targetPoint" />
          </mxGeometry>
        </mxCell>
        <mxCell id="lLOslBUi60POb3ONzHfv-9" value="Send request" style="rounded=1;whiteSpace=wrap;html=1;fontSize=12;glass=0;strokeWidth=1;shadow=0;fontFamily=Iosevka;container=0;" vertex="1" parent="1">
          <mxGeometry x="1840" y="280" width="120" height="20" as="geometry" />
        </mxCell>
        <mxCell id="lLOslBUi60POb3ONzHfv-20" style="edgeStyle=none;curved=1;rounded=0;orthogonalLoop=1;jettySize=auto;html=1;exitX=0.5;exitY=1;exitDx=0;exitDy=0;fontSize=12;startSize=8;endSize=4;endArrow=block;endFill=1;fontFamily=Iosevka;" edge="1" parent="1" source="lLOslBUi60POb3ONzHfv-24" target="lLOslBUi60POb3ONzHfv-9">
          <mxGeometry relative="1" as="geometry" />
        </mxCell>
        <mxCell id="lLOslBUi60POb3ONzHfv-21" value="Yes" style="edgeLabel;html=1;align=center;verticalAlign=middle;resizable=0;points=[];fontSize=16;fontFamily=Iosevka;" vertex="1" connectable="0" parent="lLOslBUi60POb3ONzHfv-20">
          <mxGeometry x="-0.4286" relative="1" as="geometry">
            <mxPoint y="8" as="offset" />
          </mxGeometry>
        </mxCell>
        <mxCell id="lLOslBUi60POb3ONzHfv-24" value="Requests&lt;br&gt;left?" style="rhombus;whiteSpace=wrap;html=1;fontFamily=Iosevka;fontSize=12;strokeWidth=1;rounded=1;" vertex="1" parent="1">
          <mxGeometry x="1840" y="180" width="120" height="60" as="geometry" />
        </mxCell>
        <mxCell id="lLOslBUi60POb3ONzHfv-25" style="edgeStyle=none;curved=1;rounded=0;orthogonalLoop=1;jettySize=auto;html=1;fontSize=12;startSize=8;endSize=4;fontFamily=Iosevka;endArrow=block;endFill=1;" edge="1" parent="1" source="lLOslBUi60POb3ONzHfv-26" target="lLOslBUi60POb3ONzHfv-71">
          <mxGeometry relative="1" as="geometry" />
        </mxCell>
        <mxCell id="lLOslBUi60POb3ONzHfv-26" value="Log fetched data" style="rounded=1;whiteSpace=wrap;html=1;fontSize=12;glass=0;strokeWidth=1;shadow=0;fontFamily=Iosevka;container=0;" vertex="1" parent="1">
          <mxGeometry x="1419.97" y="520" width="120" height="40" as="geometry" />
        </mxCell>
        <mxCell id="lLOslBUi60POb3ONzHfv-29" style="edgeStyle=none;curved=1;rounded=0;orthogonalLoop=1;jettySize=auto;html=1;fontSize=12;startSize=8;endSize=4;endArrow=block;endFill=1;fontFamily=Iosevka;" edge="1" parent="1" source="lLOslBUi60POb3ONzHfv-32" target="lLOslBUi60POb3ONzHfv-37">
          <mxGeometry relative="1" as="geometry" />
        </mxCell>
        <mxCell id="lLOslBUi60POb3ONzHfv-30" style="edgeStyle=none;curved=1;rounded=0;orthogonalLoop=1;jettySize=auto;html=1;fontSize=12;startSize=8;endSize=4;endArrow=block;endFill=1;fontFamily=Iosevka;" edge="1" parent="1" source="lLOslBUi60POb3ONzHfv-32" target="lLOslBUi60POb3ONzHfv-44">
          <mxGeometry relative="1" as="geometry" />
        </mxCell>
        <mxCell id="lLOslBUi60POb3ONzHfv-31" value="Yes" style="edgeLabel;html=1;align=center;verticalAlign=middle;resizable=0;points=[];fontSize=16;fontFamily=Iosevka;" vertex="1" connectable="0" parent="lLOslBUi60POb3ONzHfv-30">
          <mxGeometry x="-0.2248" y="-2" relative="1" as="geometry">
            <mxPoint x="2" y="4" as="offset" />
          </mxGeometry>
        </mxCell>
        <mxCell id="lLOslBUi60POb3ONzHfv-32" value="Response&lt;br&gt;received?" style="rhombus;whiteSpace=wrap;html=1;fontFamily=Iosevka;fontSize=12;strokeWidth=1;rounded=1;" vertex="1" parent="1">
          <mxGeometry x="1840" y="400" width="120" height="60" as="geometry" />
        </mxCell>
        <mxCell id="lLOslBUi60POb3ONzHfv-102" style="edgeStyle=orthogonalEdgeStyle;rounded=1;orthogonalLoop=1;jettySize=auto;html=1;entryX=0.5;entryY=0;entryDx=0;entryDy=0;fontSize=12;startSize=8;endSize=4;endArrow=block;endFill=1;fontFamily=Iosevka;" edge="1" parent="1" source="lLOslBUi60POb3ONzHfv-37" target="lLOslBUi60POb3ONzHfv-32">
          <mxGeometry relative="1" as="geometry">
            <Array as="points">
              <mxPoint x="2060" y="380" />
              <mxPoint x="1900" y="380" />
            </Array>
          </mxGeometry>
        </mxCell>
        <mxCell id="lLOslBUi60POb3ONzHfv-103" value="No" style="edgeLabel;html=1;align=center;verticalAlign=middle;resizable=0;points=[];fontSize=16;fontFamily=Iosevka;" vertex="1" connectable="0" parent="lLOslBUi60POb3ONzHfv-102">
          <mxGeometry x="-0.59" relative="1" as="geometry">
            <mxPoint x="-9" as="offset" />
          </mxGeometry>
        </mxCell>
        <mxCell id="lLOslBUi60POb3ONzHfv-106" style="edgeStyle=none;curved=1;rounded=0;orthogonalLoop=1;jettySize=auto;html=1;fontSize=12;startSize=8;endSize=4;endArrow=block;endFill=1;fontFamily=Iosevka;" edge="1" parent="1" source="lLOslBUi60POb3ONzHfv-37" target="lLOslBUi60POb3ONzHfv-39">
          <mxGeometry relative="1" as="geometry" />
        </mxCell>
        <mxCell id="lLOslBUi60POb3ONzHfv-107" value="Yes" style="edgeLabel;html=1;align=center;verticalAlign=middle;resizable=0;points=[];fontSize=16;fontFamily=Iosevka;" vertex="1" connectable="0" parent="lLOslBUi60POb3ONzHfv-106">
          <mxGeometry x="-0.56" relative="1" as="geometry">
            <mxPoint y="-2" as="offset" />
          </mxGeometry>
        </mxCell>
        <mxCell id="lLOslBUi60POb3ONzHfv-37" value="Timeout&lt;br&gt;&amp;gt; 500ms?" style="rhombus;whiteSpace=wrap;html=1;fontFamily=Iosevka;fontSize=12;strokeWidth=1;rounded=1;" vertex="1" parent="1">
          <mxGeometry x="2000" y="400" width="120" height="60" as="geometry" />
        </mxCell>
        <mxCell id="lLOslBUi60POb3ONzHfv-38" style="edgeStyle=none;curved=1;rounded=0;orthogonalLoop=1;jettySize=auto;html=1;fontSize=12;startSize=8;endSize=4;endArrow=block;endFill=1;fontFamily=Iosevka;" edge="1" parent="1" source="lLOslBUi60POb3ONzHfv-39" target="lLOslBUi60POb3ONzHfv-73">
          <mxGeometry relative="1" as="geometry" />
        </mxCell>
        <mxCell id="lLOslBUi60POb3ONzHfv-39" value="Increase failed&lt;br&gt;request counter" style="rounded=1;whiteSpace=wrap;html=1;fontSize=12;glass=0;strokeWidth=1;shadow=0;fontFamily=Iosevka;container=0;" vertex="1" parent="1">
          <mxGeometry x="2000" y="560" width="120" height="40" as="geometry" />
        </mxCell>
        <mxCell id="lLOslBUi60POb3ONzHfv-42" style="edgeStyle=none;curved=1;rounded=0;orthogonalLoop=1;jettySize=auto;html=1;fontSize=12;startSize=8;endSize=4;endArrow=block;endFill=1;fontFamily=Iosevka;" edge="1" parent="1" source="lLOslBUi60POb3ONzHfv-44" target="lLOslBUi60POb3ONzHfv-46">
          <mxGeometry relative="1" as="geometry" />
        </mxCell>
        <mxCell id="lLOslBUi60POb3ONzHfv-43" value="Yes" style="edgeLabel;html=1;align=center;verticalAlign=middle;resizable=0;points=[];fontSize=16;fontFamily=Iosevka;" vertex="1" connectable="0" parent="lLOslBUi60POb3ONzHfv-42">
          <mxGeometry x="-0.6" relative="1" as="geometry">
            <mxPoint as="offset" />
          </mxGeometry>
        </mxCell>
        <mxCell id="lLOslBUi60POb3ONzHfv-104" style="edgeStyle=orthogonalEdgeStyle;rounded=1;orthogonalLoop=1;jettySize=auto;html=1;entryX=0.5;entryY=0;entryDx=0;entryDy=0;fontSize=12;startSize=8;endSize=4;endArrow=block;endFill=1;fontFamily=Iosevka;" edge="1" parent="1" source="lLOslBUi60POb3ONzHfv-44" target="lLOslBUi60POb3ONzHfv-39">
          <mxGeometry relative="1" as="geometry" />
        </mxCell>
        <mxCell id="lLOslBUi60POb3ONzHfv-105" value="No" style="edgeLabel;html=1;align=center;verticalAlign=middle;resizable=0;points=[];fontSize=16;fontFamily=Iosevka;" vertex="1" connectable="0" parent="lLOslBUi60POb3ONzHfv-104">
          <mxGeometry x="-0.6718" relative="1" as="geometry">
            <mxPoint x="-1" as="offset" />
          </mxGeometry>
        </mxCell>
        <mxCell id="lLOslBUi60POb3ONzHfv-44" value="Response OK?" style="rhombus;whiteSpace=wrap;html=1;fontFamily=Iosevka;fontSize=12;strokeWidth=1;rounded=1;" vertex="1" parent="1">
          <mxGeometry x="1840" y="500" width="120" height="60" as="geometry" />
        </mxCell>
        <mxCell id="lLOslBUi60POb3ONzHfv-109" style="edgeStyle=orthogonalEdgeStyle;rounded=1;orthogonalLoop=1;jettySize=auto;html=1;entryX=0.5;entryY=0;entryDx=0;entryDy=0;fontSize=12;startSize=8;endSize=4;endArrow=block;endFill=1;fontFamily=Iosevka;" edge="1" parent="1" source="lLOslBUi60POb3ONzHfv-46" target="lLOslBUi60POb3ONzHfv-24">
          <mxGeometry relative="1" as="geometry">
            <Array as="points">
              <mxPoint x="2140" y="680" />
              <mxPoint x="2140" y="160" />
              <mxPoint x="1900" y="160" />
            </Array>
          </mxGeometry>
        </mxCell>
        <mxCell id="lLOslBUi60POb3ONzHfv-110" style="edgeStyle=none;curved=1;rounded=0;orthogonalLoop=1;jettySize=auto;html=1;fontSize=12;startSize=8;endSize=4;endArrow=block;endFill=1;fontFamily=Iosevka;" edge="1" parent="1" source="lLOslBUi60POb3ONzHfv-46" target="lLOslBUi60POb3ONzHfv-79">
          <mxGeometry relative="1" as="geometry" />
        </mxCell>
        <mxCell id="lLOslBUi60POb3ONzHfv-46" value="Update data" style="rounded=1;whiteSpace=wrap;html=1;fontSize=12;glass=0;strokeWidth=1;shadow=0;fontFamily=Iosevka;container=0;" vertex="1" parent="1">
          <mxGeometry x="1840" y="660" width="120" height="40" as="geometry" />
        </mxCell>
        <mxCell id="lLOslBUi60POb3ONzHfv-99" style="edgeStyle=none;curved=1;rounded=0;orthogonalLoop=1;jettySize=auto;html=1;fontSize=12;startSize=8;endSize=4;endArrow=block;endFill=1;" edge="1" parent="1" source="lLOslBUi60POb3ONzHfv-66" target="lLOslBUi60POb3ONzHfv-62">
          <mxGeometry relative="1" as="geometry" />
        </mxCell>
        <mxCell id="lLOslBUi60POb3ONzHfv-66" value="Update timer value" style="rounded=1;whiteSpace=wrap;html=1;fontSize=12;glass=0;strokeWidth=1;shadow=0;fontFamily=Iosevka;" vertex="1" parent="1">
          <mxGeometry x="1419.97" y="380" width="120" height="40" as="geometry" />
        </mxCell>
        <mxCell id="lLOslBUi60POb3ONzHfv-90" style="edgeStyle=orthogonalEdgeStyle;rounded=1;orthogonalLoop=1;jettySize=auto;html=1;fontSize=12;startSize=8;endSize=4;entryX=0.5;entryY=0;entryDx=0;entryDy=0;fontFamily=Iosevka;endArrow=block;endFill=1;" edge="1" parent="1" source="lLOslBUi60POb3ONzHfv-68" target="lLOslBUi60POb3ONzHfv-3">
          <mxGeometry relative="1" as="geometry">
            <mxPoint x="1499.97" y="265" as="targetPoint" />
            <Array as="points">
              <mxPoint x="1359.97" y="660" />
              <mxPoint x="1359.97" y="260" />
              <mxPoint x="1479.97" y="260" />
            </Array>
          </mxGeometry>
        </mxCell>
        <mxCell id="lLOslBUi60POb3ONzHfv-68" value="Reset next&lt;br&gt;loop flag" style="rounded=1;whiteSpace=wrap;html=1;fontSize=12;glass=0;strokeWidth=1;shadow=0;fontFamily=Iosevka;" vertex="1" parent="1">
          <mxGeometry x="1419.97" y="640" width="120" height="40" as="geometry" />
        </mxCell>
        <mxCell id="lLOslBUi60POb3ONzHfv-70" style="edgeStyle=none;curved=1;rounded=0;orthogonalLoop=1;jettySize=auto;html=1;entryX=0.5;entryY=0;entryDx=0;entryDy=0;fontSize=12;startSize=8;endSize=4;fontFamily=Iosevka;endArrow=block;endFill=1;" edge="1" parent="1" source="lLOslBUi60POb3ONzHfv-71" target="lLOslBUi60POb3ONzHfv-68">
          <mxGeometry relative="1" as="geometry" />
        </mxCell>
        <mxCell id="lLOslBUi60POb3ONzHfv-71" value="Send data&lt;br&gt;to Webserver" style="rounded=1;whiteSpace=wrap;html=1;fontSize=12;glass=0;strokeWidth=1;shadow=0;fontFamily=Iosevka;" vertex="1" parent="1">
          <mxGeometry x="1419.97" y="580" width="120" height="40" as="geometry" />
        </mxCell>
        <mxCell id="lLOslBUi60POb3ONzHfv-108" style="edgeStyle=orthogonalEdgeStyle;rounded=1;orthogonalLoop=1;jettySize=auto;html=1;entryX=0.5;entryY=0;entryDx=0;entryDy=0;fontSize=12;startSize=8;endSize=4;endArrow=block;endFill=1;fontFamily=Iosevka;" edge="1" parent="1" source="lLOslBUi60POb3ONzHfv-73" target="lLOslBUi60POb3ONzHfv-24">
          <mxGeometry relative="1" as="geometry">
            <Array as="points">
              <mxPoint x="2140" y="640" />
              <mxPoint x="2140" y="160" />
              <mxPoint x="1900" y="160" />
            </Array>
          </mxGeometry>
        </mxCell>
        <mxCell id="lLOslBUi60POb3ONzHfv-73" value="Log request&lt;br&gt;failed" style="rounded=1;whiteSpace=wrap;html=1;fontSize=12;glass=0;strokeWidth=1;shadow=0;fontFamily=Iosevka;container=0;" vertex="1" parent="1">
          <mxGeometry x="2000" y="620" width="120" height="40" as="geometry" />
        </mxCell>
        <mxCell id="lLOslBUi60POb3ONzHfv-74" style="edgeStyle=none;curved=1;rounded=0;orthogonalLoop=1;jettySize=auto;html=1;fontSize=12;startSize=8;endSize=4;endArrow=block;endFill=1;fontFamily=Iosevka;" edge="1" parent="1" source="lLOslBUi60POb3ONzHfv-75" target="lLOslBUi60POb3ONzHfv-32">
          <mxGeometry relative="1" as="geometry" />
        </mxCell>
        <mxCell id="lLOslBUi60POb3ONzHfv-75" value="Increase total&lt;br&gt;request counter" style="rounded=1;whiteSpace=wrap;html=1;fontSize=12;glass=0;strokeWidth=1;shadow=0;fontFamily=Iosevka;container=0;" vertex="1" parent="1">
          <mxGeometry x="1840" y="320" width="120" height="40" as="geometry" />
        </mxCell>
        <mxCell id="lLOslBUi60POb3ONzHfv-77" value="" style="group;fontFamily=Iosevka;" vertex="1" connectable="0" parent="1">
          <mxGeometry x="1419.97" y="450" width="120" height="40" as="geometry" />
        </mxCell>
        <mxCell id="lLOslBUi60POb3ONzHfv-62" value="&lt;b&gt;Fetch&lt;br&gt;subroutine&lt;/b&gt;" style="rounded=1;whiteSpace=wrap;html=1;fontSize=12;glass=0;strokeWidth=1;shadow=0;fontFamily=Iosevka;container=0;" vertex="1" parent="lLOslBUi60POb3ONzHfv-77">
          <mxGeometry width="120" height="40" as="geometry" />
        </mxCell>
        <mxCell id="lLOslBUi60POb3ONzHfv-63" value="" style="endArrow=none;html=1;rounded=0;fontSize=12;startSize=8;endSize=8;curved=1;strokeWidth=1;fontFamily=Iosevka;" edge="1" parent="lLOslBUi60POb3ONzHfv-77">
          <mxGeometry width="50" height="50" relative="1" as="geometry">
            <mxPoint x="10" y="40" as="sourcePoint" />
            <mxPoint x="10" as="targetPoint" />
          </mxGeometry>
        </mxCell>
        <mxCell id="lLOslBUi60POb3ONzHfv-64" value="" style="endArrow=none;html=1;rounded=0;fontSize=12;startSize=8;endSize=8;curved=1;strokeWidth=1;fontFamily=Iosevka;" edge="1" parent="lLOslBUi60POb3ONzHfv-77">
          <mxGeometry width="50" height="50" relative="1" as="geometry">
            <mxPoint x="110" y="40" as="sourcePoint" />
            <mxPoint x="110" as="targetPoint" />
          </mxGeometry>
        </mxCell>
        <mxCell id="lLOslBUi60POb3ONzHfv-78" value="" style="group;fontFamily=Iosevka;" vertex="1" connectable="0" parent="1">
          <mxGeometry x="1840" y="720" width="120" height="40" as="geometry" />
        </mxCell>
        <mxCell id="lLOslBUi60POb3ONzHfv-79" value="&lt;b&gt;Return&lt;/b&gt;" style="rounded=1;whiteSpace=wrap;html=1;fontSize=12;glass=0;strokeWidth=1;shadow=0;fontFamily=Iosevka;container=0;" vertex="1" parent="lLOslBUi60POb3ONzHfv-78">
          <mxGeometry width="120" height="40" as="geometry" />
        </mxCell>
        <mxCell id="lLOslBUi60POb3ONzHfv-80" value="" style="endArrow=none;html=1;rounded=0;fontSize=12;startSize=8;endSize=8;curved=1;strokeWidth=1;fontFamily=Iosevka;" edge="1" parent="lLOslBUi60POb3ONzHfv-78">
          <mxGeometry width="50" height="50" relative="1" as="geometry">
            <mxPoint x="10" y="40" as="sourcePoint" />
            <mxPoint x="10" as="targetPoint" />
          </mxGeometry>
        </mxCell>
        <mxCell id="lLOslBUi60POb3ONzHfv-81" value="" style="endArrow=none;html=1;rounded=0;fontSize=12;startSize=8;endSize=8;curved=1;strokeWidth=1;fontFamily=Iosevka;" edge="1" parent="lLOslBUi60POb3ONzHfv-78">
          <mxGeometry width="50" height="50" relative="1" as="geometry">
            <mxPoint x="110" y="40" as="sourcePoint" />
            <mxPoint x="110" as="targetPoint" />
          </mxGeometry>
        </mxCell>
        <mxCell id="lLOslBUi60POb3ONzHfv-89" value="" style="group" vertex="1" connectable="0" parent="1">
          <mxGeometry x="1610" y="339" width="160" height="200" as="geometry" />
        </mxCell>
        <mxCell id="lLOslBUi60POb3ONzHfv-88" value="" style="rounded=0;whiteSpace=wrap;html=1;fontSize=16;fillColor=none;dashed=1;" vertex="1" parent="lLOslBUi60POb3ONzHfv-89">
          <mxGeometry width="160" height="200" as="geometry" />
        </mxCell>
        <mxCell id="lLOslBUi60POb3ONzHfv-11" value="Button press ISR" style="text;html=1;align=center;verticalAlign=middle;resizable=0;points=[];autosize=1;strokeColor=none;fillColor=none;fontSize=12;fontFamily=Iosevka;fontStyle=1;container=0;rounded=1;" vertex="1" parent="lLOslBUi60POb3ONzHfv-89">
          <mxGeometry x="20" y="15" width="120" height="30" as="geometry" />
        </mxCell>
        <mxCell id="lLOslBUi60POb3ONzHfv-12" value="" style="endArrow=none;html=1;rounded=1;fontSize=12;startSize=8;endSize=8;curved=1;" edge="1" parent="lLOslBUi60POb3ONzHfv-89">
          <mxGeometry width="50" height="50" relative="1" as="geometry">
            <mxPoint x="20" y="40" as="sourcePoint" />
            <mxPoint x="140" y="40" as="targetPoint" />
          </mxGeometry>
        </mxCell>
        <mxCell id="lLOslBUi60POb3ONzHfv-13" value="" style="endArrow=none;html=1;rounded=1;fontSize=12;startSize=8;endSize=8;curved=1;" edge="1" parent="lLOslBUi60POb3ONzHfv-89">
          <mxGeometry width="50" height="50" relative="1" as="geometry">
            <mxPoint x="20" y="160" as="sourcePoint" />
            <mxPoint x="140" y="160" as="targetPoint" />
          </mxGeometry>
        </mxCell>
        <mxCell id="lLOslBUi60POb3ONzHfv-14" value="End Interrupt" style="text;html=1;align=center;verticalAlign=middle;resizable=0;points=[];autosize=1;strokeColor=none;fillColor=none;fontSize=12;fontFamily=Iosevka;fontStyle=1;container=0;rounded=1;" vertex="1" parent="lLOslBUi60POb3ONzHfv-89">
          <mxGeometry x="30" y="155" width="100" height="30" as="geometry" />
        </mxCell>
        <mxCell id="lLOslBUi60POb3ONzHfv-82" value="" style="group" vertex="1" connectable="0" parent="lLOslBUi60POb3ONzHfv-89">
          <mxGeometry x="20" y="80" width="120" height="40" as="geometry" />
        </mxCell>
        <mxCell id="lLOslBUi60POb3ONzHfv-83" value="&lt;b&gt;Fetch&lt;br&gt;subroutine&lt;/b&gt;" style="rounded=1;whiteSpace=wrap;html=1;fontSize=12;glass=0;strokeWidth=1;shadow=0;fontFamily=Iosevka;container=0;" vertex="1" parent="lLOslBUi60POb3ONzHfv-82">
          <mxGeometry width="120" height="40" as="geometry" />
        </mxCell>
        <mxCell id="lLOslBUi60POb3ONzHfv-84" value="" style="endArrow=none;html=1;rounded=0;fontSize=12;startSize=8;endSize=8;curved=1;strokeWidth=1;" edge="1" parent="lLOslBUi60POb3ONzHfv-82">
          <mxGeometry width="50" height="50" relative="1" as="geometry">
            <mxPoint x="10" y="40" as="sourcePoint" />
            <mxPoint x="10" as="targetPoint" />
          </mxGeometry>
        </mxCell>
        <mxCell id="lLOslBUi60POb3ONzHfv-85" value="" style="endArrow=none;html=1;rounded=0;fontSize=12;startSize=8;endSize=8;curved=1;strokeWidth=1;" edge="1" parent="lLOslBUi60POb3ONzHfv-82">
          <mxGeometry width="50" height="50" relative="1" as="geometry">
            <mxPoint x="110" y="40" as="sourcePoint" />
            <mxPoint x="110" as="targetPoint" />
          </mxGeometry>
        </mxCell>
        <mxCell id="lLOslBUi60POb3ONzHfv-86" value="" style="endArrow=block;html=1;rounded=0;fontSize=12;startSize=8;endSize=4;curved=1;strokeWidth=1;endFill=1;entryX=0.5;entryY=0;entryDx=0;entryDy=0;" edge="1" parent="lLOslBUi60POb3ONzHfv-89" target="lLOslBUi60POb3ONzHfv-83">
          <mxGeometry width="50" height="50" relative="1" as="geometry">
            <mxPoint x="79.86000000000013" y="40" as="sourcePoint" />
            <mxPoint x="79.86000000000013" y="75" as="targetPoint" />
          </mxGeometry>
        </mxCell>
        <mxCell id="lLOslBUi60POb3ONzHfv-87" value="" style="endArrow=block;html=1;rounded=0;fontSize=12;startSize=8;endSize=4;curved=1;strokeWidth=1;endFill=1;" edge="1" parent="lLOslBUi60POb3ONzHfv-89">
          <mxGeometry width="50" height="50" relative="1" as="geometry">
            <mxPoint x="79.8599999999999" y="120" as="sourcePoint" />
            <mxPoint x="80" y="160" as="targetPoint" />
          </mxGeometry>
        </mxCell>
        <mxCell id="lLOslBUi60POb3ONzHfv-93" value="" style="group;fontFamily=Iosevka;" vertex="1" connectable="0" parent="1">
          <mxGeometry x="1840" y="40" width="120" height="40" as="geometry" />
        </mxCell>
        <mxCell id="lLOslBUi60POb3ONzHfv-94" value="&lt;b&gt;Fetch&lt;br&gt;subroutine&lt;/b&gt;" style="rounded=1;whiteSpace=wrap;html=1;fontSize=12;glass=0;strokeWidth=1;shadow=0;fontFamily=Iosevka;container=0;" vertex="1" parent="lLOslBUi60POb3ONzHfv-93">
          <mxGeometry width="120" height="40" as="geometry" />
        </mxCell>
        <mxCell id="lLOslBUi60POb3ONzHfv-95" value="" style="endArrow=none;html=1;rounded=0;fontSize=12;startSize=8;endSize=8;curved=1;strokeWidth=1;fontFamily=Iosevka;" edge="1" parent="lLOslBUi60POb3ONzHfv-93">
          <mxGeometry width="50" height="50" relative="1" as="geometry">
            <mxPoint x="10" y="40" as="sourcePoint" />
            <mxPoint x="10" as="targetPoint" />
          </mxGeometry>
        </mxCell>
        <mxCell id="lLOslBUi60POb3ONzHfv-96" value="" style="endArrow=none;html=1;rounded=0;fontSize=12;startSize=8;endSize=8;curved=1;strokeWidth=1;fontFamily=Iosevka;" edge="1" parent="lLOslBUi60POb3ONzHfv-93">
          <mxGeometry width="50" height="50" relative="1" as="geometry">
            <mxPoint x="110" y="40" as="sourcePoint" />
            <mxPoint x="110" as="targetPoint" />
          </mxGeometry>
        </mxCell>
        <mxCell id="lLOslBUi60POb3ONzHfv-98" style="edgeStyle=none;curved=1;rounded=0;orthogonalLoop=1;jettySize=auto;html=1;fontSize=12;startSize=8;endSize=4;endArrow=block;endFill=1;" edge="1" parent="1" source="lLOslBUi60POb3ONzHfv-62" target="lLOslBUi60POb3ONzHfv-26">
          <mxGeometry relative="1" as="geometry" />
        </mxCell>
        <mxCell id="lLOslBUi60POb3ONzHfv-100" style="edgeStyle=none;curved=1;rounded=0;orthogonalLoop=1;jettySize=auto;html=1;fontSize=12;startSize=8;endSize=4;endArrow=block;endFill=1;fontFamily=Iosevka;" edge="1" parent="1" source="lLOslBUi60POb3ONzHfv-94" target="lLOslBUi60POb3ONzHfv-7">
          <mxGeometry relative="1" as="geometry" />
        </mxCell>
      </root>
    </mxGraphModel>
  </diagram>
</mxfile>
